<svg width="91" height="60" viewBox="0 0 91 60" fill="none" xmlns="http://www.w3.org/2000/svg">
<g clip-path="url(#clip0_33_407)">
<path d="M26.37 -3.05246e-05C28.8422 -3.05246e-05 31.3144 0.235262 33.6688 0.70585C35.6701 1.17644 37.5537 1.99997 39.3195 3.17644C40.8499 4.35291 42.1449 5.88232 42.969 7.64703C43.9107 9.88232 44.3816 12.2353 44.2639 14.5882C44.3816 17.1764 43.6753 19.7647 42.3803 22C40.9677 24.1176 38.9664 25.7647 36.7296 26.8235C39.9081 27.647 42.6158 29.647 44.3816 32.2353C46.1475 35.0588 46.9715 38.3529 46.9715 41.647C46.9715 44.3529 46.5006 46.9411 45.3234 49.2941C44.2639 51.4117 42.7335 53.1764 40.9677 54.7058C39.0841 56.1176 36.8473 57.1764 34.6106 57.7647C32.2561 58.4706 29.784 58.7058 27.3118 58.7058H0V-0.117676H26.37V-3.05246e-05ZM24.7219 23.7647C26.6054 23.8823 28.6067 23.2941 30.1371 22.1176C31.6675 20.8235 32.4916 18.8235 32.2561 16.7058C32.2561 15.5294 32.0207 14.3529 31.5498 13.2941C31.0789 12.4706 30.4903 11.7647 29.6662 11.2941C28.8422 10.8235 27.9004 10.3529 26.9586 10.2353C25.8991 9.99997 24.8396 9.99997 23.7801 9.99997H12.2432V23.7647H24.7219ZM25.4282 48.9412C26.6054 48.9412 27.7827 48.8235 28.8422 48.5882C29.9017 48.3529 30.8435 47.8823 31.7853 47.2941C32.6093 46.7058 33.3156 45.8823 33.7865 44.9411C34.3752 43.7647 34.6106 42.4706 34.4929 41.1764C34.7283 38.7058 33.7865 36.3529 32.0207 34.7058C30.1371 33.2941 27.9004 32.7058 25.5459 32.8235H12.2432V49.0588H25.4282V48.9412Z" fill="white"/>
<path d="M64.3946 48.7058C66.3959 50.4705 68.9858 51.4117 71.5757 51.294C73.6948 51.294 75.696 50.7058 77.3442 49.5293C78.7568 48.5881 79.6986 47.294 80.2872 45.7646H90.0583C88.9988 50.1175 86.4089 53.9999 82.8772 56.7058C79.4632 59.0587 75.3429 60.1175 71.1048 59.9999C68.1618 59.9999 65.2187 59.5293 62.3933 58.3528C59.9211 57.294 57.6844 55.7646 55.9186 53.7646C54.1527 51.6469 52.74 49.294 51.7983 46.7058C50.7387 43.7646 50.2679 40.7058 50.3856 37.647C50.3856 34.5881 50.8565 31.647 51.916 28.7058C54.7413 20.4705 62.5111 14.9411 71.2226 15.0587C74.4011 14.9411 77.4619 15.7646 80.2872 17.1764C82.7594 18.5881 84.9962 20.4705 86.6443 22.8234C88.2924 25.294 89.5874 27.9999 90.176 30.9411C90.8823 33.9999 91.1178 37.294 91.0001 40.4705H61.8047C61.4516 43.4117 62.3933 46.3528 64.3946 48.7058ZM77.1087 26.2352C75.4606 24.5881 73.2239 23.7646 70.8694 23.8823C69.339 23.8823 67.8086 24.1175 66.5136 24.8234C65.4541 25.4117 64.5124 26.2352 63.6883 27.1764C62.9819 28.1175 62.5111 29.0587 62.1579 30.2352C61.9224 31.1764 61.687 32.1176 61.687 33.0587H79.8164C79.5809 30.5881 78.6391 28.2352 77.1087 26.2352Z" fill="white"/>
<path d="M81.9354 3.88232H59.3325V9.64702H81.9354V3.88232Z" fill="white"/>
</g>
<defs>
<clipPath id="clip0_33_407">
<rect width="91" height="60" fill="white"/>
</clipPath>
</defs>
</svg>
