<svg width="16" height="9" viewBox="0 0 16 9" fill="none" xmlns="http://www.w3.org/2000/svg">
<path d="M4.02058 7.2571V5.68921H4.22599V6.11627L4.20484 6.04161C4.24915 5.92215 4.32366 5.83156 4.42838 5.76984C4.53309 5.70613 4.66299 5.67428 4.81805 5.67428V5.88034C4.80999 5.88034 4.80194 5.88034 4.79388 5.88034C4.78583 5.87835 4.77777 5.87736 4.76972 5.87736C4.60257 5.87736 4.47167 5.92813 4.37702 6.02967C4.28237 6.12921 4.23505 6.27157 4.23505 6.45673V7.2571H4.02058Z" fill="url(#paint0_linear_116_7)"/>
<path d="M5.86827 7.27203C5.70314 7.27203 5.55814 7.23819 5.43328 7.17049C5.30843 7.10081 5.21076 7.00624 5.14027 6.88678C5.06979 6.76533 5.03455 6.62696 5.03455 6.47166C5.03455 6.31637 5.06778 6.17899 5.13423 6.05953C5.2027 5.94007 5.29534 5.8465 5.41214 5.7788C5.53095 5.70912 5.66387 5.67428 5.81087 5.67428C5.9599 5.67428 6.0918 5.70812 6.20659 5.77582C6.32339 5.84152 6.41502 5.93509 6.48147 6.05654C6.54793 6.176 6.58116 6.31438 6.58116 6.47166C6.58116 6.48162 6.58015 6.49257 6.57814 6.50451C6.57814 6.51447 6.57814 6.52542 6.57814 6.53736H5.19767V6.37908H6.46335L6.37877 6.4418C6.37877 6.32831 6.3536 6.22777 6.30325 6.14016C6.25492 6.05057 6.18846 5.98089 6.10388 5.93111C6.0193 5.88134 5.92163 5.85645 5.81087 5.85645C5.70213 5.85645 5.60446 5.88134 5.51787 5.93111C5.43127 5.98089 5.36381 6.05057 5.31548 6.14016C5.26715 6.22976 5.24298 6.33229 5.24298 6.44777V6.48062C5.24298 6.60008 5.26916 6.7056 5.32152 6.79719C5.37589 6.88678 5.4504 6.95746 5.54505 7.00922C5.64171 7.059 5.75147 7.08389 5.87431 7.08389C5.97097 7.08389 6.06059 7.06696 6.14315 7.03312C6.22773 6.99927 6.30023 6.9475 6.36065 6.87782L6.48147 7.0152C6.41099 7.09882 6.32238 7.16253 6.21565 7.20633C6.11093 7.25013 5.99514 7.27203 5.86827 7.27203Z" fill="url(#paint1_linear_116_7)"/>
<path d="M7.96727 7.2571V6.91067L7.95821 6.85393V6.27455C7.95821 6.14116 7.91994 6.03863 7.84342 5.96695C7.76891 5.89528 7.65714 5.85944 7.50812 5.85944C7.40541 5.85944 7.30774 5.87636 7.21511 5.91021C7.12247 5.94405 7.04393 5.98885 6.97949 6.0446L6.88283 5.88632C6.96338 5.81862 7.06004 5.76686 7.17282 5.73102C7.28559 5.69319 7.40441 5.67428 7.52926 5.67428C7.73467 5.67428 7.89276 5.72505 8.00352 5.82659C8.11629 5.92613 8.17268 6.07844 8.17268 6.28351V7.2571H7.96727ZM7.42052 7.27203C7.3017 7.27203 7.19799 7.25312 7.10938 7.21529C7.02279 7.17547 6.95633 7.12171 6.91002 7.05402C6.8637 6.98434 6.84054 6.9047 6.84054 6.8151C6.84054 6.73347 6.85967 6.65981 6.89793 6.59411C6.93821 6.52641 7.00265 6.47266 7.09126 6.43284C7.18188 6.39103 7.30271 6.37012 7.45375 6.37012H8.0005V6.5284H7.45979C7.30674 6.5284 7.20001 6.55528 7.13959 6.60904C7.08119 6.6628 7.05199 6.72949 7.05199 6.80913C7.05199 6.89873 7.08723 6.9704 7.15771 7.02416C7.2282 7.07791 7.32688 7.10479 7.45375 7.10479C7.57457 7.10479 7.67829 7.07791 7.76488 7.02416C7.85349 6.96841 7.91793 6.88877 7.95821 6.78524L8.00654 6.93158C7.96626 7.03511 7.89578 7.11773 7.79509 7.17945C7.69641 7.24117 7.57155 7.27203 7.42052 7.27203Z" fill="url(#paint2_linear_116_7)"/>
<path d="M9.25664 7.27203C9.10762 7.27203 8.99283 7.23221 8.91228 7.15257C8.83173 7.07294 8.79145 6.96045 8.79145 6.8151V5.34278H9.00592V6.80316C9.00592 6.89474 9.02908 6.96542 9.0754 7.0152C9.12373 7.06497 9.1922 7.08986 9.28081 7.08986C9.37546 7.08986 9.454 7.06298 9.51643 7.00922L9.59194 7.16153C9.54965 7.19936 9.4983 7.22724 9.43789 7.24515C9.37949 7.26307 9.31907 7.27203 9.25664 7.27203ZM8.50751 5.86541V5.68921H9.48924V5.86541H8.50751Z" fill="url(#paint3_linear_116_7)"/>
<path d="M10.5999 7.27203C10.4348 7.27203 10.2898 7.23819 10.165 7.17049C10.0401 7.10081 9.94243 7.00624 9.87195 6.88678C9.80147 6.76533 9.76622 6.62696 9.76622 6.47166C9.76622 6.31637 9.79945 6.17899 9.86591 6.05953C9.93438 5.94007 10.027 5.8465 10.1438 5.7788C10.2626 5.70912 10.3955 5.67428 10.5425 5.67428C10.6916 5.67428 10.8235 5.70812 10.9383 5.77582C11.0551 5.84152 11.1467 5.93509 11.2131 6.05654C11.2796 6.176 11.3128 6.31438 11.3128 6.47166C11.3128 6.48162 11.3118 6.49257 11.3098 6.50451C11.3098 6.51447 11.3098 6.52542 11.3098 6.53736H9.92934V6.37908H11.195L11.1104 6.4418C11.1104 6.32831 11.0853 6.22777 11.0349 6.14016C10.9866 6.05057 10.9201 5.98089 10.8356 5.93111C10.751 5.88134 10.6533 5.85645 10.5425 5.85645C10.4338 5.85645 10.3361 5.88134 10.2495 5.93111C10.1629 5.98089 10.0955 6.05057 10.0472 6.14016C9.99882 6.22976 9.97465 6.33229 9.97465 6.44777V6.48062C9.97465 6.60008 10.0008 6.7056 10.0532 6.79719C10.1076 6.88678 10.1821 6.95746 10.2767 7.00922C10.3734 7.059 10.4831 7.08389 10.606 7.08389C10.7026 7.08389 10.7923 7.06696 10.8748 7.03312C10.9594 6.99927 11.0319 6.9475 11.0923 6.87782L11.2131 7.0152C11.1427 7.09882 11.0541 7.16253 10.9473 7.20633C10.8426 7.25013 10.7268 7.27203 10.5999 7.27203Z" fill="url(#paint4_linear_116_7)"/>
<path d="M4.19155 9C3.7904 9 3.41825 8.93788 3.07509 8.81364C2.73677 8.68463 2.44195 8.50305 2.19063 8.26891C1.94414 8.03478 1.75081 7.76002 1.61065 7.44465C1.47049 7.1245 1.40041 6.77329 1.40041 6.39103C1.40041 6.00876 1.47049 5.65994 1.61065 5.34457C1.75081 5.02442 1.94414 4.74728 2.19063 4.51314C2.44195 4.279 2.73677 4.09981 3.07509 3.97558C3.41825 3.84656 3.7904 3.78205 4.19155 3.78205C4.66037 3.78205 5.07844 3.86329 5.44575 4.02575C5.81791 4.18821 6.12723 4.42235 6.37372 4.72817L5.46025 5.54526C5.29593 5.35413 5.11468 5.20839 4.91652 5.10804C4.7232 5.0077 4.50571 4.95753 4.26405 4.95753C4.05622 4.95753 3.86531 4.99097 3.69132 5.05787C3.51733 5.12477 3.3675 5.22272 3.24184 5.35174C3.12101 5.47598 3.02435 5.62649 2.95185 5.80329C2.88418 5.98009 2.85035 6.176 2.85035 6.39103C2.85035 6.60605 2.88418 6.80196 2.95185 6.97876C3.02435 7.15556 3.12101 7.30847 3.24184 7.43748C3.3675 7.56172 3.51733 7.65729 3.69132 7.72418C3.86531 7.79108 4.05622 7.82453 4.26405 7.82453C4.50571 7.82453 4.7232 7.77436 4.91652 7.67401C5.11468 7.57367 5.29593 7.42793 5.46025 7.23679L6.37372 8.05389C6.12723 8.35492 5.81791 8.58906 5.44575 8.7563C5.07844 8.91877 4.66037 9 4.19155 9Z" fill="url(#paint5_linear_116_7)"/>
<path d="M5.08991 3.37172C5.0154 3.37172 4.94391 3.35977 4.87544 3.33588C4.80899 3.31199 4.75159 3.27615 4.70326 3.22837L4.80295 3.07008C4.84322 3.10791 4.88652 3.13678 4.93284 3.15669C4.98117 3.17859 5.03453 3.18954 5.09293 3.18954C5.16342 3.18954 5.22383 3.16963 5.27418 3.12981C5.32654 3.09198 5.37588 3.02429 5.42219 2.92673L5.5249 2.69677L5.54906 2.66392L6.20154 1.20952H6.41299L5.61854 2.96556C5.57424 3.0671 5.5249 3.14773 5.47052 3.20746C5.41817 3.26719 5.36077 3.309 5.29834 3.33289C5.23592 3.35877 5.16644 3.37172 5.08991 3.37172ZM5.51281 2.82221L4.7818 1.20952H5.00533L5.65177 2.64899L5.51281 2.82221Z" fill="url(#paint6_linear_116_7)"/>
<path d="M7.37053 2.79234C7.23561 2.79234 7.1178 2.76745 7.01711 2.71768C6.91642 2.66791 6.83788 2.59324 6.78149 2.4937C6.72712 2.39415 6.69993 2.26971 6.69993 2.12039V1.20952H6.91441V2.0965C6.91441 2.26374 6.95569 2.39016 7.03826 2.47578C7.12284 2.5594 7.24064 2.60121 7.39168 2.60121C7.50244 2.60121 7.59809 2.57931 7.67865 2.53551C7.76121 2.48971 7.82364 2.42401 7.86593 2.3384C7.91024 2.25279 7.93239 2.15025 7.93239 2.03079V1.20952H8.14686V2.77741H7.94145V2.34736L7.97468 2.42501C7.92433 2.54048 7.84579 2.63107 7.73906 2.69677C7.63434 2.76049 7.5115 2.79234 7.37053 2.79234Z" fill="url(#paint7_linear_116_7)"/>
<path d="M10.7262 1.19458C10.8551 1.19458 10.9668 1.21947 11.0615 1.26925C11.1581 1.31703 11.2327 1.3907 11.285 1.49024C11.3394 1.58979 11.3666 1.71522 11.3666 1.86654V2.77741H11.1521V1.88744C11.1521 1.72219 11.1118 1.59776 11.0313 1.51414C10.9527 1.42852 10.841 1.38572 10.696 1.38572C10.5872 1.38572 10.4926 1.40861 10.412 1.45441C10.3335 1.49821 10.2721 1.56292 10.2278 1.64853C10.1855 1.73215 10.1643 1.83369 10.1643 1.95315V2.77741H9.94985V1.88744C9.94985 1.72219 9.90958 1.59776 9.82902 1.51414C9.74847 1.42852 9.6357 1.38572 9.4907 1.38572C9.38397 1.38572 9.29033 1.40861 9.20977 1.45441C9.12922 1.49821 9.06679 1.56292 9.02249 1.64853C8.9802 1.73215 8.95906 1.83369 8.95906 1.95315V2.77741H8.74458V1.20952H8.94999V1.63359L8.91677 1.55893C8.9651 1.44545 9.04263 1.35685 9.14936 1.29314C9.25811 1.22744 9.38598 1.19458 9.53299 1.19458C9.68806 1.19458 9.81996 1.23341 9.92871 1.31106C10.0375 1.38671 10.1079 1.50119 10.1402 1.6545L10.0556 1.62165C10.1019 1.49423 10.1835 1.39169 10.3003 1.31404C10.4191 1.2344 10.561 1.19458 10.7262 1.19458Z" fill="url(#paint8_linear_116_7)"/>
<path d="M11.9482 2.77741V1.20952H12.1627V2.77741H11.9482ZM12.0569 0.863088C12.0126 0.863088 11.9754 0.848155 11.9452 0.818291C11.915 0.788426 11.8999 0.752589 11.8999 0.710778C11.8999 0.668967 11.915 0.634125 11.9452 0.606252C11.9754 0.576387 12.0126 0.561455 12.0569 0.561455C12.1012 0.561455 12.1385 0.575392 12.1687 0.603265C12.1989 0.631139 12.214 0.665981 12.214 0.707792C12.214 0.751593 12.1989 0.788426 12.1687 0.818291C12.1405 0.848155 12.1033 0.863088 12.0569 0.863088Z" fill="url(#paint9_linear_116_7)"/>
<path d="M13.569 1.19458C13.6979 1.19458 13.8106 1.21947 13.9073 1.26925C14.006 1.31703 14.0825 1.3907 14.1369 1.49024C14.1933 1.58979 14.2215 1.71522 14.2215 1.86654V2.77741H14.007V1.88744C14.007 1.72219 13.9647 1.59776 13.8801 1.51414C13.7975 1.42852 13.6807 1.38572 13.5297 1.38572C13.4169 1.38572 13.3183 1.40861 13.2337 1.45441C13.1511 1.49821 13.0867 1.56292 13.0404 1.64853C12.9961 1.73215 12.9739 1.83369 12.9739 1.95315V2.77741H12.7594V1.20952H12.9648V1.63957L12.9316 1.55893C12.982 1.44545 13.0625 1.35685 13.1733 1.29314C13.284 1.22744 13.4159 1.19458 13.569 1.19458Z" fill="url(#paint10_linear_116_7)"/>
<path d="M15.7946 2.77741V2.43098L15.7855 2.37424V1.79486C15.7855 1.66147 15.7473 1.55893 15.6707 1.48726C15.5962 1.41558 15.4845 1.37975 15.3354 1.37975C15.2327 1.37975 15.1351 1.39667 15.0424 1.43052C14.9498 1.46436 14.8713 1.50916 14.8068 1.56491L14.7102 1.40662C14.7907 1.33893 14.8874 1.28717 15.0001 1.25133C15.1129 1.2135 15.2317 1.19458 15.3566 1.19458C15.562 1.19458 15.7201 1.24535 15.8308 1.34689C15.9436 1.44644 16 1.59875 16 1.80382V2.77741H15.7946ZM15.2478 2.79234C15.129 2.79234 15.0253 2.77343 14.9367 2.7356C14.8501 2.69578 14.7837 2.64202 14.7373 2.57433C14.691 2.50465 14.6679 2.42501 14.6679 2.33541C14.6679 2.25378 14.687 2.18012 14.7253 2.11441C14.7655 2.04672 14.83 1.99297 14.9186 1.95315C15.0092 1.91134 15.13 1.89043 15.2811 1.89043H15.8278V2.04871H15.2871C15.1341 2.04871 15.0273 2.07559 14.9669 2.12935C14.9085 2.1831 14.8793 2.2498 14.8793 2.32944C14.8793 2.41903 14.9146 2.49071 14.985 2.54447C15.0555 2.59822 15.1542 2.6251 15.2811 2.6251C15.4019 2.6251 15.5056 2.59822 15.5922 2.54447C15.6808 2.48872 15.7453 2.40908 15.7855 2.30555L15.8339 2.45188C15.7936 2.55542 15.7231 2.63804 15.6224 2.69976C15.5237 2.76148 15.3989 2.79234 15.2478 2.79234Z" fill="url(#paint11_linear_116_7)"/>
<path d="M0 5.01726V0H2.31991C2.7839 0 3.18263 0.0740643 3.51612 0.222193C3.85444 0.370321 4.11543 0.585347 4.29909 0.867268C4.48275 1.14441 4.57458 1.47412 4.57458 1.85638C4.57458 2.23387 4.48275 2.56119 4.29909 2.83833C4.11543 3.1107 3.85444 3.32095 3.51612 3.46907C3.18263 3.61242 2.7839 3.6841 2.31991 3.6841H0.79747L1.43545 3.0892V5.01726H0ZM3.13913 5.01726L1.87768 3.18954H3.40737L4.67608 5.01726H3.13913ZM1.43545 3.23971L0.79747 2.58747H2.23292C2.53257 2.58747 2.7549 2.52296 2.89989 2.39395C3.04972 2.26493 3.12463 2.08574 3.12463 1.85638C3.12463 1.62225 3.04972 1.44067 2.89989 1.31165C2.7549 1.18264 2.53257 1.11813 2.23292 1.11813H0.79747L1.43545 0.465888V3.23971Z" fill="url(#paint12_linear_116_7)"/>
<defs>
<linearGradient id="paint0_linear_116_7" x1="-1.66997e-07" y1="5.16084" x2="6.78398" y2="5.09576" gradientUnits="userSpaceOnUse">
<stop stop-color="#980002"/>
<stop offset="1" stop-color="#320001"/>
</linearGradient>
<linearGradient id="paint1_linear_116_7" x1="-1.66997e-07" y1="5.16084" x2="6.78398" y2="5.09576" gradientUnits="userSpaceOnUse">
<stop stop-color="#980002"/>
<stop offset="1" stop-color="#320001"/>
</linearGradient>
<linearGradient id="paint2_linear_116_7" x1="-1.66997e-07" y1="5.16084" x2="6.78398" y2="5.09576" gradientUnits="userSpaceOnUse">
<stop stop-color="#980002"/>
<stop offset="1" stop-color="#320001"/>
</linearGradient>
<linearGradient id="paint3_linear_116_7" x1="-1.66997e-07" y1="5.16084" x2="6.78398" y2="5.09576" gradientUnits="userSpaceOnUse">
<stop stop-color="#980002"/>
<stop offset="1" stop-color="#320001"/>
</linearGradient>
<linearGradient id="paint4_linear_116_7" x1="-1.66997e-07" y1="5.16084" x2="6.78398" y2="5.09576" gradientUnits="userSpaceOnUse">
<stop stop-color="#980002"/>
<stop offset="1" stop-color="#320001"/>
</linearGradient>
<linearGradient id="paint5_linear_116_7" x1="-1.66997e-07" y1="5.16084" x2="6.78398" y2="5.09576" gradientUnits="userSpaceOnUse">
<stop stop-color="#980002"/>
<stop offset="1" stop-color="#320001"/>
</linearGradient>
<linearGradient id="paint6_linear_116_7" x1="-1.66997e-07" y1="5.16084" x2="6.78398" y2="5.09576" gradientUnits="userSpaceOnUse">
<stop stop-color="#980002"/>
<stop offset="1" stop-color="#320001"/>
</linearGradient>
<linearGradient id="paint7_linear_116_7" x1="-1.66997e-07" y1="5.16084" x2="6.78398" y2="5.09576" gradientUnits="userSpaceOnUse">
<stop stop-color="#980002"/>
<stop offset="1" stop-color="#320001"/>
</linearGradient>
<linearGradient id="paint8_linear_116_7" x1="-1.66997e-07" y1="5.16084" x2="6.78398" y2="5.09576" gradientUnits="userSpaceOnUse">
<stop stop-color="#980002"/>
<stop offset="1" stop-color="#320001"/>
</linearGradient>
<linearGradient id="paint9_linear_116_7" x1="-1.66997e-07" y1="5.16084" x2="6.78398" y2="5.09576" gradientUnits="userSpaceOnUse">
<stop stop-color="#980002"/>
<stop offset="1" stop-color="#320001"/>
</linearGradient>
<linearGradient id="paint10_linear_116_7" x1="-1.66997e-07" y1="5.16084" x2="6.78398" y2="5.09576" gradientUnits="userSpaceOnUse">
<stop stop-color="#980002"/>
<stop offset="1" stop-color="#320001"/>
</linearGradient>
<linearGradient id="paint11_linear_116_7" x1="-1.66997e-07" y1="5.16084" x2="6.78398" y2="5.09576" gradientUnits="userSpaceOnUse">
<stop stop-color="#980002"/>
<stop offset="1" stop-color="#320001"/>
</linearGradient>
<linearGradient id="paint12_linear_116_7" x1="-1.66997e-07" y1="5.16084" x2="6.78398" y2="5.09576" gradientUnits="userSpaceOnUse">
<stop stop-color="#980002"/>
<stop offset="1" stop-color="#320001"/>
</linearGradient>
</defs>
</svg>
