<svg width="80" height="80" viewBox="0 0 80 80" fill="none" xmlns="http://www.w3.org/2000/svg">
<g clip-path="url(#clip0_33_397)">
<path d="M23.4337 0.280239C19.1777 0.481039 16.2713 1.16024 13.7305 2.15864C11.1009 3.18344 8.87206 4.55864 6.65446 6.78424C4.43686 9.00984 3.07126 11.2402 2.05366 13.8738C1.06886 16.4202 0.401665 19.329 0.213665 23.5874C0.0256649 27.8458 -0.0159351 29.2146 0.00486486 40.077C0.0256649 50.9394 0.0736649 52.301 0.280065 56.5682C0.483265 60.8234 1.16006 63.729 2.15846 66.2706C3.18486 68.9002 4.55846 71.1282 6.78486 73.3466C9.01126 75.565 11.2401 76.9274 13.8801 77.9466C16.4241 78.9298 19.3337 79.6002 23.5913 79.7866C27.8489 79.973 29.2193 80.0162 40.0785 79.9954C50.9377 79.9746 52.3049 79.9266 56.5713 79.7242C60.8377 79.5218 63.7281 78.8402 66.2705 77.8466C68.9001 76.8178 71.1297 75.4466 73.3465 73.2194C75.5633 70.9922 76.9281 68.7602 77.9449 66.125C78.9305 63.581 79.6001 60.6714 79.7849 56.417C79.9713 52.1474 80.0153 50.7842 79.9945 39.9234C79.9737 29.0626 79.9249 27.701 79.7225 23.4354C79.5201 19.1698 78.8425 16.273 77.8449 13.7298C76.8169 11.1002 75.4449 8.87384 73.2193 6.65384C70.9937 4.43384 68.7601 3.06984 66.1257 2.05544C63.5801 1.07064 60.6721 0.399439 56.4145 0.215439C52.1569 0.0314387 50.7865 -0.0157613 39.9233 0.00503873C29.0601 0.0258387 27.7001 0.0722387 23.4337 0.280239ZM23.9009 72.5906C20.0009 72.421 17.8833 71.773 16.4721 71.2306C14.6033 70.5106 13.2721 69.6402 11.8657 68.2474C10.4593 66.8546 9.59526 65.5186 8.86566 63.6538C8.31766 62.2426 7.65766 60.1274 7.47526 56.2274C7.27686 52.0122 7.23526 50.7466 7.21206 40.0674C7.18886 29.3882 7.22966 28.1242 7.41446 23.9074C7.58086 20.0106 8.23286 17.8906 8.77446 16.4802C9.49446 14.609 10.3617 13.2802 11.7577 11.8746C13.1537 10.469 14.4857 9.60344 16.3521 8.87384C17.7617 8.32344 19.8769 7.66904 23.7753 7.48344C27.9937 7.28344 29.2577 7.24344 39.9353 7.22024C50.6129 7.19704 51.8801 7.23704 56.1001 7.42264C59.9969 7.59224 62.1177 8.23784 63.5265 8.78264C65.3961 9.50264 66.7265 10.3674 68.1321 11.7658C69.5377 13.1642 70.4041 14.4914 71.1337 16.3618C71.6849 17.7674 72.3393 19.8818 72.5233 23.7826C72.7241 28.001 72.7697 29.2658 72.7889 39.9426C72.8081 50.6194 72.7705 51.8874 72.5857 56.1026C72.4153 60.0026 71.7689 62.121 71.2257 63.5338C70.5057 65.4018 69.6377 66.7338 68.2409 68.1386C66.8441 69.5434 65.5137 70.409 63.6465 71.1386C62.2385 71.6882 60.1209 72.3442 56.2257 72.5298C52.0073 72.7282 50.7433 72.7698 40.0617 72.793C29.3801 72.8162 28.1201 72.773 23.9017 72.5906M56.5097 18.6218C56.5112 19.5713 56.7944 20.4989 57.3232 21.2874C57.852 22.0759 58.6028 22.6899 59.4805 23.0517C60.3583 23.4135 61.3237 23.5068 62.2545 23.3199C63.1854 23.133 64.0399 22.6743 64.71 22.0017C65.3801 21.3291 65.8357 20.473 66.0192 19.5414C66.2026 18.6099 66.1058 17.6449 65.7408 16.7685C65.3757 15.892 64.759 15.1435 63.9686 14.6176C63.1781 14.0916 62.2495 13.8119 61.3001 13.8138C60.0273 13.8164 58.8077 14.3243 57.9093 15.2259C57.011 16.1276 56.5075 17.3491 56.5097 18.6218ZM19.4617 40.0402C19.4841 51.3842 28.6969 60.5594 40.0385 60.5378C51.3801 60.5162 60.5617 51.3042 60.5401 39.9602C60.5185 28.6162 51.3033 19.4386 39.9601 19.461C28.6169 19.4834 19.4401 28.6978 19.4617 40.0402ZM26.6665 40.0258C26.6612 37.3887 27.4382 34.8093 28.8989 32.6137C30.3597 30.4181 32.4387 28.705 34.8731 27.6909C37.3075 26.6769 39.9879 26.4076 42.5754 26.9169C45.1629 27.4263 47.5412 28.6915 49.4096 30.5525C51.2781 32.4136 52.5527 34.7869 53.0723 37.3723C53.5919 39.9578 53.3331 42.6392 52.3288 45.0776C51.3244 47.516 49.6195 49.6018 47.4297 51.0713C45.24 52.5407 42.6636 53.3278 40.0265 53.333C38.2754 53.3367 36.5408 52.9954 34.9217 52.3286C33.3025 51.6618 31.8306 50.6826 30.59 49.4469C29.3493 48.2111 28.3643 46.7431 27.6911 45.1266C27.0179 43.5102 26.6697 41.7769 26.6665 40.0258Z" fill="white"/>
</g>
<defs>
<clipPath id="clip0_33_397">
<rect width="80" height="80" fill="white"/>
</clipPath>
</defs>
</svg>
