<svg width="112" height="85" viewBox="0 0 112 85" fill="none" xmlns="http://www.w3.org/2000/svg">
<path d="M29.98 62V51.5H31.34V54.36L31.2 53.86C31.4933 53.06 31.9867 52.4533 32.68 52.04C33.3733 51.6133 34.2333 51.4 35.26 51.4V52.78C35.2067 52.78 35.1533 52.78 35.1 52.78C35.0467 52.7667 34.9933 52.76 34.94 52.76C33.8333 52.76 32.9667 53.1 32.34 53.78C31.7133 54.4467 31.4 55.4 31.4 56.64V62H29.98ZM42.2134 62.1C41.1201 62.1 40.1601 61.8733 39.3334 61.42C38.5068 60.9533 37.8601 60.32 37.3934 59.52C36.9268 58.7067 36.6934 57.78 36.6934 56.74C36.6934 55.7 36.9134 54.78 37.3534 53.98C37.8068 53.18 38.4201 52.5533 39.1934 52.1C39.9801 51.6333 40.8601 51.4 41.8334 51.4C42.8201 51.4 43.6934 51.6267 44.4534 52.08C45.2268 52.52 45.8334 53.1467 46.2734 53.96C46.7134 54.76 46.9334 55.6867 46.9334 56.74C46.9334 56.8067 46.9268 56.88 46.9134 56.96C46.9134 57.0267 46.9134 57.1 46.9134 57.18H37.7734V56.12H46.1534L45.5934 56.54C45.5934 55.78 45.4268 55.1067 45.0934 54.52C44.7734 53.92 44.3334 53.4533 43.7734 53.12C43.2134 52.7867 42.5668 52.62 41.8334 52.62C41.1134 52.62 40.4668 52.7867 39.8934 53.12C39.3201 53.4533 38.8734 53.92 38.5534 54.52C38.2334 55.12 38.0734 55.8067 38.0734 56.58V56.8C38.0734 57.6 38.2468 58.3067 38.5934 58.92C38.9534 59.52 39.4468 59.9933 40.0734 60.34C40.7134 60.6733 41.4401 60.84 42.2534 60.84C42.8934 60.84 43.4868 60.7267 44.0334 60.5C44.5934 60.2733 45.0734 59.9267 45.4734 59.46L46.2734 60.38C45.8068 60.94 45.2201 61.3667 44.5134 61.66C43.8201 61.9533 43.0534 62.1 42.2134 62.1ZM56.1108 62V59.68L56.0508 59.3V55.42C56.0508 54.5267 55.7974 53.84 55.2908 53.36C54.7974 52.88 54.0574 52.64 53.0708 52.64C52.3908 52.64 51.7441 52.7533 51.1308 52.98C50.5174 53.2067 49.9974 53.5067 49.5708 53.88L48.9308 52.82C49.4641 52.3667 50.1041 52.02 50.8508 51.78C51.5974 51.5267 52.3841 51.4 53.2108 51.4C54.5708 51.4 55.6174 51.74 56.3508 52.42C57.0974 53.0867 57.4708 54.1067 57.4708 55.48V62H56.1108ZM52.4908 62.1C51.7041 62.1 51.0174 61.9733 50.4308 61.72C49.8574 61.4533 49.4174 61.0933 49.1108 60.64C48.8041 60.1733 48.6508 59.64 48.6508 59.04C48.6508 58.4933 48.7774 58 49.0308 57.56C49.2974 57.1067 49.7241 56.7467 50.3108 56.48C50.9108 56.2 51.7108 56.06 52.7108 56.06H56.3308V57.12H52.7508C51.7374 57.12 51.0308 57.3 50.6308 57.66C50.2441 58.02 50.0508 58.4667 50.0508 59C50.0508 59.6 50.2841 60.08 50.7508 60.44C51.2174 60.8 51.8708 60.98 52.7108 60.98C53.5108 60.98 54.1974 60.8 54.7708 60.44C55.3574 60.0667 55.7841 59.5333 56.0508 58.84L56.3708 59.82C56.1041 60.5133 55.6374 61.0667 54.9708 61.48C54.3174 61.8933 53.4908 62.1 52.4908 62.1ZM64.6477 62.1C63.661 62.1 62.901 61.8333 62.3677 61.3C61.8343 60.7667 61.5677 60.0133 61.5677 59.04V49.18H62.9877V58.96C62.9877 59.5733 63.141 60.0467 63.4477 60.38C63.7677 60.7133 64.221 60.88 64.8077 60.88C65.4343 60.88 65.9543 60.7 66.3677 60.34L66.8677 61.36C66.5877 61.6133 66.2477 61.8 65.8477 61.92C65.461 62.04 65.061 62.1 64.6477 62.1ZM59.6877 52.68V51.5H66.1877V52.68H59.6877ZM73.5416 62.1C72.4482 62.1 71.4882 61.8733 70.6616 61.42C69.8349 60.9533 69.1882 60.32 68.7216 59.52C68.2549 58.7067 68.0216 57.78 68.0216 56.74C68.0216 55.7 68.2416 54.78 68.6816 53.98C69.1349 53.18 69.7482 52.5533 70.5216 52.1C71.3082 51.6333 72.1882 51.4 73.1616 51.4C74.1482 51.4 75.0216 51.6267 75.7816 52.08C76.5549 52.52 77.1616 53.1467 77.6016 53.96C78.0416 54.76 78.2616 55.6867 78.2616 56.74C78.2616 56.8067 78.2549 56.88 78.2416 56.96C78.2416 57.0267 78.2416 57.1 78.2416 57.18H69.1016V56.12H77.4816L76.9216 56.54C76.9216 55.78 76.7549 55.1067 76.4216 54.52C76.1016 53.92 75.6616 53.4533 75.1016 53.12C74.5416 52.7867 73.8949 52.62 73.1616 52.62C72.4416 52.62 71.7949 52.7867 71.2216 53.12C70.6482 53.4533 70.2016 53.92 69.8816 54.52C69.5616 55.12 69.4016 55.8067 69.4016 56.58V56.8C69.4016 57.6 69.5749 58.3067 69.9216 58.92C70.2816 59.52 70.7749 59.9933 71.4016 60.34C72.0416 60.6733 72.7682 60.84 73.5816 60.84C74.2216 60.84 74.8149 60.7267 75.3616 60.5C75.9216 60.2733 76.4016 59.9267 76.8016 59.46L77.6016 60.38C77.1349 60.94 76.5482 61.3667 75.8416 61.66C75.1482 61.9533 74.3816 62.1 73.5416 62.1Z" fill="#F5F5F5"/>
<path d="M31.112 73.672C28.456 73.672 25.992 73.256 23.72 72.424C21.48 71.56 19.528 70.344 17.864 68.776C16.232 67.208 14.952 65.368 14.024 63.256C13.096 61.112 12.632 58.76 12.632 56.2C12.632 53.64 13.096 51.304 14.024 49.192C14.952 47.048 16.232 45.192 17.864 43.624C19.528 42.056 21.48 40.856 23.72 40.024C25.992 39.16 28.456 38.728 31.112 38.728C34.216 38.728 36.984 39.272 39.416 40.36C41.88 41.448 43.928 43.016 45.56 45.064L39.512 50.536C38.424 49.256 37.224 48.28 35.912 47.608C34.632 46.936 33.192 46.6 31.592 46.6C30.216 46.6 28.952 46.824 27.8 47.272C26.648 47.72 25.656 48.376 24.824 49.24C24.024 50.072 23.384 51.08 22.904 52.264C22.456 53.448 22.232 54.76 22.232 56.2C22.232 57.64 22.456 58.952 22.904 60.136C23.384 61.32 24.024 62.344 24.824 63.208C25.656 64.04 26.648 64.68 27.8 65.128C28.952 65.576 30.216 65.8 31.592 65.8C33.192 65.8 34.632 65.464 35.912 64.792C37.224 64.12 38.424 63.144 39.512 61.864L45.56 67.336C43.928 69.352 41.88 70.92 39.416 72.04C36.984 73.128 34.216 73.672 31.112 73.672Z" fill="white"/>
<path d="M37.06 35.98C36.5667 35.98 36.0933 35.9 35.64 35.74C35.2 35.58 34.82 35.34 34.5 35.02L35.16 33.96C35.4267 34.2133 35.7133 34.4067 36.02 34.54C36.34 34.6867 36.6933 34.76 37.08 34.76C37.5467 34.76 37.9467 34.6267 38.28 34.36C38.6267 34.1067 38.9533 33.6533 39.26 33L39.94 31.46L40.1 31.24L44.42 21.5H45.82L40.56 33.26C40.2667 33.94 39.94 34.48 39.58 34.88C39.2333 35.28 38.8533 35.56 38.44 35.72C38.0267 35.8933 37.5667 35.98 37.06 35.98ZM39.86 32.3L35.02 21.5H36.5L40.78 31.14L39.86 32.3ZM52.1598 32.1C51.2665 32.1 50.4865 31.9333 49.8198 31.6C49.1532 31.2667 48.6332 30.7667 48.2598 30.1C47.8998 29.4333 47.7198 28.6 47.7198 27.6V21.5H49.1398V27.44C49.1398 28.56 49.4132 29.4067 49.9598 29.98C50.5198 30.54 51.2998 30.82 52.2998 30.82C53.0332 30.82 53.6665 30.6733 54.1998 30.38C54.7465 30.0733 55.1598 29.6333 55.4398 29.06C55.7332 28.4867 55.8798 27.8 55.8798 27V21.5H57.2998V32H55.9398V29.12L56.1598 29.64C55.8265 30.4133 55.3065 31.02 54.5998 31.46C53.9065 31.8867 53.0932 32.1 52.1598 32.1ZM74.3773 21.4C75.2307 21.4 75.9707 21.5667 76.5973 21.9C77.2373 22.22 77.7307 22.7133 78.0773 23.38C78.4373 24.0467 78.6173 24.8867 78.6173 25.9V32H77.1973V26.04C77.1973 24.9333 76.9307 24.1 76.3973 23.54C75.8773 22.9667 75.1373 22.68 74.1773 22.68C73.4573 22.68 72.8307 22.8333 72.2973 23.14C71.7773 23.4333 71.3707 23.8667 71.0773 24.44C70.7973 25 70.6573 25.68 70.6573 26.48V32H69.2373V26.04C69.2373 24.9333 68.9707 24.1 68.4373 23.54C67.904 22.9667 67.1573 22.68 66.1973 22.68C65.4907 22.68 64.8707 22.8333 64.3373 23.14C63.804 23.4333 63.3907 23.8667 63.0973 24.44C62.8173 25 62.6773 25.68 62.6773 26.48V32H61.2573V21.5H62.6173V24.34L62.3973 23.84C62.7173 23.08 63.2307 22.4867 63.9373 22.06C64.6573 21.62 65.504 21.4 66.4773 21.4C67.504 21.4 68.3773 21.66 69.0973 22.18C69.8173 22.6867 70.284 23.4533 70.4973 24.48L69.9373 24.26C70.244 23.4067 70.784 22.72 71.5573 22.2C72.344 21.6667 73.284 21.4 74.3773 21.4ZM82.4683 32V21.5H83.8883V32H82.4683ZM83.1883 19.18C82.8949 19.18 82.6483 19.08 82.4483 18.88C82.2483 18.68 82.1483 18.44 82.1483 18.16C82.1483 17.88 82.2483 17.6467 82.4483 17.46C82.6483 17.26 82.8949 17.16 83.1883 17.16C83.4816 17.16 83.7283 17.2533 83.9283 17.44C84.1283 17.6267 84.2283 17.86 84.2283 18.14C84.2283 18.4333 84.1283 18.68 83.9283 18.88C83.7416 19.08 83.4949 19.18 83.1883 19.18ZM93.1994 21.4C94.0527 21.4 94.7994 21.5667 95.4394 21.9C96.0927 22.22 96.5994 22.7133 96.9594 23.38C97.3327 24.0467 97.5194 24.8867 97.5194 25.9V32H96.0994V26.04C96.0994 24.9333 95.8194 24.1 95.2594 23.54C94.7127 22.9667 93.9394 22.68 92.9394 22.68C92.1927 22.68 91.5394 22.8333 90.9794 23.14C90.4327 23.4333 90.006 23.8667 89.6994 24.44C89.406 25 89.2594 25.68 89.2594 26.48V32H87.8394V21.5H89.1994V24.38L88.9794 23.84C89.3127 23.08 89.846 22.4867 90.5794 22.06C91.3127 21.62 92.186 21.4 93.1994 21.4ZM107.935 32V29.68L107.875 29.3V25.42C107.875 24.5267 107.622 23.84 107.115 23.36C106.622 22.88 105.882 22.64 104.895 22.64C104.215 22.64 103.568 22.7533 102.955 22.98C102.342 23.2067 101.822 23.5067 101.395 23.88L100.755 22.82C101.288 22.3667 101.928 22.02 102.675 21.78C103.422 21.5267 104.208 21.4 105.035 21.4C106.395 21.4 107.442 21.74 108.175 22.42C108.922 23.0867 109.295 24.1067 109.295 25.48V32H107.935ZM104.315 32.1C103.528 32.1 102.842 31.9733 102.255 31.72C101.682 31.4533 101.242 31.0933 100.935 30.64C100.628 30.1733 100.475 29.64 100.475 29.04C100.475 28.4933 100.602 28 100.855 27.56C101.122 27.1067 101.548 26.7467 102.135 26.48C102.735 26.2 103.535 26.06 104.535 26.06H108.155V27.12H104.575C103.562 27.12 102.855 27.3 102.455 27.66C102.068 28.02 101.875 28.4667 101.875 29C101.875 29.6 102.108 30.08 102.575 30.44C103.042 30.8 103.695 30.98 104.535 30.98C105.335 30.98 106.022 30.8 106.595 30.44C107.182 30.0667 107.608 29.5333 107.875 28.84L108.195 29.82C107.928 30.5133 107.462 31.0667 106.795 31.48C106.142 31.8933 105.315 32.1 104.315 32.1Z" fill="#F5F5F5"/>
<path d="M3.36 47V13.4H18.72C21.792 13.4 24.432 13.896 26.64 14.888C28.88 15.88 30.608 17.32 31.824 19.208C33.04 21.064 33.648 23.272 33.648 25.832C33.648 28.36 33.04 30.552 31.824 32.408C30.608 34.232 28.88 35.64 26.64 36.632C24.432 37.592 21.792 38.072 18.72 38.072H8.64L12.864 34.088V47H3.36ZM24.144 47L15.792 34.76H25.92L34.32 47H24.144ZM12.864 35.096L8.64 30.728H18.144C20.128 30.728 21.6 30.296 22.56 29.432C23.552 28.568 24.048 27.368 24.048 25.832C24.048 24.264 23.552 23.048 22.56 22.184C21.6 21.32 20.128 20.888 18.144 20.888H8.64L12.864 16.52V35.096Z" fill="white"/>
</svg>
