<svg width="250" height="143" viewBox="0 0 250 143" fill="none" xmlns="http://www.w3.org/2000/svg">
<path d="M62.8215 115.307V90.3952H66.0311V97.1808L65.7007 95.9945C66.3929 94.0964 67.5572 92.6571 69.1934 91.6764C70.8296 90.6641 72.8592 90.1579 75.282 90.1579V93.4321C75.1562 93.4321 75.0303 93.4321 74.9044 93.4321C74.7786 93.4005 74.6527 93.3847 74.5268 93.3847C71.9152 93.3847 69.8699 94.1913 68.391 95.8047C66.9121 97.3864 66.1727 99.6483 66.1727 102.59V115.307H62.8215Z" fill="url(#paint0_linear_11_7198)"/>
<path d="M91.6917 115.545C89.1115 115.545 86.846 115.007 84.8951 113.931C82.9442 112.824 81.4181 111.321 80.3168 109.423C79.2155 107.494 78.6648 105.295 78.6648 102.828C78.6648 100.36 79.184 98.1773 80.2224 96.2792C81.2922 94.3811 82.7397 92.8943 84.5647 91.8187C86.4212 90.7115 88.4979 90.1579 90.7949 90.1579C93.1234 90.1579 95.1844 90.6957 96.978 91.7713C98.803 92.8152 100.235 94.302 101.273 96.2317C102.311 98.1298 102.831 100.328 102.831 102.828C102.831 102.986 102.815 103.16 102.783 103.349C102.783 103.508 102.783 103.682 102.783 103.871H81.2136V101.357H100.99L99.6683 102.353C99.6683 100.55 99.275 98.9523 98.4883 97.5604C97.7331 96.1368 96.6948 95.0296 95.3732 94.2388C94.0516 93.4479 92.5255 93.0525 90.7949 93.0525C89.0958 93.0525 87.5697 93.4479 86.2166 94.2388C84.8636 95.0296 83.8095 96.1368 83.0543 97.5604C82.2991 98.9839 81.9216 100.613 81.9216 102.448V102.97C81.9216 104.868 82.3306 106.545 83.1487 108C83.9983 109.423 85.1625 110.546 86.6414 111.369C88.1518 112.16 89.8667 112.555 91.7861 112.555C93.2965 112.555 94.6967 112.286 95.9868 111.748C97.3084 111.211 98.4411 110.388 99.3851 109.281L101.273 111.464C100.172 112.792 98.7873 113.805 97.1196 114.501C95.4833 115.197 93.6741 115.545 91.6917 115.545Z" fill="url(#paint1_linear_11_7198)"/>
<path d="M124.489 115.307V109.803L124.347 108.901V99.6957C124.347 97.5762 123.749 95.947 122.553 94.8082C121.389 93.6694 119.643 93.0999 117.314 93.0999C115.71 93.0999 114.184 93.3688 112.736 93.9066C111.289 94.4444 110.061 95.1562 109.055 96.0419L107.544 93.527C108.803 92.4514 110.313 91.6289 112.075 91.0595C113.837 90.4585 115.694 90.1579 117.645 90.1579C120.854 90.1579 123.324 90.9646 125.055 92.578C126.817 94.1597 127.698 96.5797 127.698 99.8381V115.307H124.489ZM115.946 115.545C114.089 115.545 112.469 115.244 111.084 114.643C109.731 114.01 108.693 113.156 107.969 112.081C107.245 110.973 106.883 109.708 106.883 108.284C106.883 106.987 107.182 105.817 107.78 104.773C108.41 103.697 109.416 102.843 110.801 102.211C112.217 101.546 114.105 101.214 116.465 101.214H125.008V103.729H116.559C114.168 103.729 112.5 104.156 111.556 105.01C110.644 105.864 110.187 106.924 110.187 108.19C110.187 109.613 110.738 110.752 111.839 111.606C112.941 112.46 114.482 112.887 116.465 112.887C118.353 112.887 119.973 112.46 121.326 111.606C122.711 110.72 123.718 109.455 124.347 107.81L125.102 110.135C124.473 111.78 123.372 113.093 121.798 114.074C120.256 115.054 118.306 115.545 115.946 115.545Z" fill="url(#paint2_linear_11_7198)"/>
<path d="M144.635 115.545C142.307 115.545 140.513 114.912 139.254 113.646C137.996 112.381 137.366 110.594 137.366 108.284V84.8908H140.718V108.095C140.718 109.55 141.079 110.673 141.803 111.464C142.558 112.255 143.628 112.65 145.013 112.65C146.492 112.65 147.719 112.223 148.694 111.369L149.874 113.789C149.213 114.39 148.411 114.833 147.467 115.117C146.554 115.402 145.611 115.545 144.635 115.545ZM132.93 93.1948V90.3952H148.269V93.1948H132.93Z" fill="url(#paint3_linear_11_7198)"/>
<path d="M165.624 115.545C163.044 115.545 160.778 115.007 158.827 113.931C156.877 112.824 155.351 111.321 154.249 109.423C153.148 107.494 152.597 105.295 152.597 102.828C152.597 100.36 153.116 98.1773 154.155 96.2792C155.225 94.3811 156.672 92.8943 158.497 91.8187C160.354 90.7115 162.43 90.1579 164.727 90.1579C167.056 90.1579 169.117 90.6957 170.91 91.7713C172.735 92.8152 174.167 94.302 175.205 96.2317C176.244 98.1298 176.763 100.328 176.763 102.828C176.763 102.986 176.747 103.16 176.716 103.349C176.716 103.508 176.716 103.682 176.716 103.871H155.146V101.357H174.922L173.601 102.353C173.601 100.55 173.207 98.9523 172.421 97.5604C171.666 96.1368 170.627 95.0296 169.306 94.2388C167.984 93.4479 166.458 93.0525 164.727 93.0525C163.028 93.0525 161.502 93.4479 160.149 94.2388C158.796 95.0296 157.742 96.1368 156.987 97.5604C156.232 98.9839 155.854 100.613 155.854 102.448V102.97C155.854 104.868 156.263 106.545 157.081 108C157.931 109.423 159.095 110.546 160.574 111.369C162.084 112.16 163.799 112.555 165.719 112.555C167.229 112.555 168.629 112.286 169.919 111.748C171.241 111.211 172.374 110.388 173.318 109.281L175.205 111.464C174.104 112.792 172.72 113.805 171.052 114.501C169.416 115.197 167.606 115.545 165.624 115.545Z" fill="url(#paint4_linear_11_7198)"/>
<path d="M65.493 143C59.225 143 53.4101 142.013 48.0483 140.039C42.7621 137.989 38.1555 135.104 34.2285 131.384C30.3771 127.664 27.3564 123.298 25.1664 118.287C22.9764 113.2 21.8813 107.62 21.8813 101.546C21.8813 95.4725 22.9764 89.9302 25.1664 84.9193C27.3564 79.8325 30.3771 75.429 34.2285 71.7088C38.1555 67.9886 42.7621 65.1415 48.0483 63.1675C53.4101 61.1176 59.225 60.0926 65.493 60.0926C72.8182 60.0926 79.3506 61.3833 85.0899 63.9647C90.9048 66.5461 95.738 70.2663 99.5894 75.1253L85.3165 88.108C82.7489 85.0711 79.9169 82.7555 76.8207 81.1611C73.8 79.5668 70.4017 78.7696 66.6258 78.7696C63.3785 78.7696 60.3955 79.301 57.6769 80.3639C54.9582 81.4269 52.6172 82.9833 50.6537 85.0332C48.7658 87.0072 47.2554 89.3987 46.1226 92.2079C45.0654 95.017 44.5367 98.1298 44.5367 101.546C44.5367 104.963 45.0654 108.076 46.1226 110.885C47.2554 113.694 48.7658 116.123 50.6537 118.173C52.6172 120.147 54.9582 121.666 57.6769 122.729C60.3955 123.792 63.3785 124.323 66.6258 124.323C70.4017 124.323 73.8 123.526 76.8207 121.932C79.9169 120.337 82.7489 118.021 85.3165 114.985L99.5894 127.967C95.738 132.75 90.9048 136.471 85.0899 139.128C79.3506 141.709 72.8182 143 65.493 143Z" fill="url(#paint5_linear_11_7198)"/>
<path d="M79.5299 53.5728C78.3657 53.5728 77.2486 53.383 76.1788 53.0034C75.1404 52.6238 74.2436 52.0544 73.4885 51.2951L75.046 48.7802C75.6753 49.3813 76.3519 49.84 77.0756 50.1563C77.8307 50.5043 78.6646 50.6783 79.5771 50.6783C80.6784 50.6783 81.6224 50.3619 82.409 49.7292C83.2271 49.1282 83.9981 48.0526 84.7218 46.5025L86.3265 42.8488L86.7041 42.3268L96.8991 19.2179H100.203L87.7897 47.1194C87.0974 48.7327 86.3265 50.0139 85.477 50.963C84.6588 51.912 83.7621 52.5763 82.7866 52.9559C81.8112 53.3672 80.7256 53.5728 79.5299 53.5728ZM86.1377 44.8417L74.7156 19.2179H78.2083L88.3089 42.0895L86.1377 44.8417Z" fill="url(#paint6_linear_11_7198)"/>
<path d="M115.165 44.3672C113.056 44.3672 111.216 43.9718 109.642 43.1809C108.069 42.3901 106.842 41.2038 105.961 39.6221C105.111 38.0403 104.686 36.0632 104.686 33.6906V19.2179H108.038V33.311C108.038 35.9683 108.683 37.9771 109.973 39.3373C111.294 40.666 113.135 41.3303 115.495 41.3303C117.226 41.3303 118.72 40.9823 119.979 40.2864C121.269 39.5588 122.244 38.5148 122.905 37.1546C123.597 35.7943 123.944 34.1651 123.944 32.2671V19.2179H127.295V44.1299H124.085V37.2969L124.604 38.5307C123.818 40.3655 122.591 41.8048 120.923 42.8488C119.287 43.861 117.367 44.3672 115.165 44.3672Z" fill="url(#paint7_linear_11_7198)"/>
<path d="M167.597 18.9806C169.61 18.9806 171.357 19.3761 172.836 20.1669C174.346 20.9261 175.51 22.0966 176.328 23.6783C177.178 25.26 177.603 27.253 177.603 29.6572V44.1299H174.252V29.9894C174.252 27.3637 173.622 25.3866 172.364 24.0579C171.136 22.6977 169.39 22.0175 167.125 22.0175C165.425 22.0175 163.946 22.3813 162.688 23.1089C161.461 23.8049 160.501 24.833 159.809 26.1933C159.148 27.5219 158.818 29.1353 158.818 31.0333V44.1299H155.466V29.9894C155.466 27.3637 154.837 25.3866 153.578 24.0579C152.32 22.6977 150.558 22.0175 148.292 22.0175C146.625 22.0175 145.161 22.3813 143.903 23.1089C142.644 23.8049 141.669 24.833 140.976 26.1933C140.316 27.5219 139.985 29.1353 139.985 31.0333V44.1299H136.634V19.2179H139.844V25.956L139.324 24.7697C140.08 22.9666 141.291 21.5588 142.959 20.5465C144.658 19.5026 146.656 18.9806 148.953 18.9806C151.376 18.9806 153.437 19.5975 155.136 20.8312C156.835 22.0333 157.937 23.8523 158.44 26.2882L157.118 25.7662C157.842 23.7416 159.116 22.1124 160.941 20.8787C162.798 19.6133 165.016 18.9806 167.597 18.9806Z" fill="url(#paint8_linear_11_7198)"/>
<path d="M186.691 44.1299V19.2179H190.042V44.1299H186.691ZM188.39 13.7135C187.698 13.7135 187.115 13.4762 186.643 13.0017C186.171 12.5272 185.935 11.9578 185.935 11.2935C185.935 10.6291 186.171 10.0755 186.643 9.63267C187.115 9.15815 187.698 8.92089 188.39 8.92089C189.082 8.92089 189.664 9.14234 190.136 9.58522C190.608 10.0281 190.844 10.5817 190.844 11.246C190.844 11.942 190.608 12.5272 190.136 13.0017C189.696 13.4762 189.113 13.7135 188.39 13.7135Z" fill="url(#paint9_linear_11_7198)"/>
<path d="M212.015 18.9806C214.029 18.9806 215.791 19.3761 217.302 20.1669C218.843 20.9261 220.039 22.0966 220.889 23.6783C221.77 25.26 222.21 27.253 222.21 29.6572V44.1299H218.859V29.9894C218.859 27.3637 218.198 25.3866 216.877 24.0579C215.587 22.6977 213.762 22.0175 211.402 22.0175C209.64 22.0175 208.098 22.3813 206.776 23.1089C205.486 23.8049 204.479 24.833 203.756 26.1933C203.063 27.5219 202.717 29.1353 202.717 31.0333V44.1299H199.366V19.2179H202.576V26.0509L202.056 24.7697C202.843 22.9666 204.102 21.5588 205.832 20.5465C207.563 19.5026 209.624 18.9806 212.015 18.9806Z" fill="url(#paint10_linear_11_7198)"/>
<path d="M246.791 44.1299V38.6256L246.649 37.724V28.5184C246.649 26.3989 246.051 24.7697 244.855 23.6309C243.691 22.492 241.945 21.9226 239.616 21.9226C238.012 21.9226 236.485 22.1915 235.038 22.7293C233.591 23.2671 232.363 23.9789 231.357 24.8646L229.846 22.3497C231.105 21.2741 232.615 20.4516 234.377 19.8822C236.139 19.2811 237.996 18.9806 239.947 18.9806C243.156 18.9806 245.626 19.7873 247.357 21.4007C249.119 22.9824 250 25.4024 250 28.6607V44.1299H246.791ZM238.248 44.3672C236.391 44.3672 234.771 44.0667 233.386 43.4656C232.033 42.8329 230.995 41.9788 230.271 40.9032C229.547 39.796 229.185 38.5307 229.185 37.1071C229.185 35.8101 229.484 34.6396 230.082 33.5957C230.711 32.5201 231.718 31.666 233.103 31.0333C234.519 30.369 236.407 30.0368 238.767 30.0368H247.31V32.5518H238.861C236.47 32.5518 234.802 32.9788 233.858 33.833C232.946 34.6871 232.489 35.7468 232.489 37.0122C232.489 38.4358 233.04 39.5746 234.141 40.4287C235.243 41.2829 236.784 41.7099 238.767 41.7099C240.655 41.7099 242.275 41.2829 243.628 40.4287C245.013 39.543 246.02 38.2776 246.649 36.6326L247.404 38.9577C246.775 40.6027 245.673 41.9155 244.1 42.8962C242.558 43.8769 240.607 44.3672 238.248 44.3672Z" fill="url(#paint11_linear_11_7198)"/>
<path d="M0 79.7186V0H36.2486C43.4984 0 49.7286 1.1768 54.9394 3.5304C60.2256 5.884 64.3036 9.30051 67.1733 13.7799C70.043 18.1834 71.4778 23.4221 71.4778 29.4959C71.4778 35.4938 70.043 40.6945 67.1733 45.098C64.3036 49.4255 60.2256 52.7661 54.9394 55.1197C49.7286 57.3974 43.4984 58.5362 36.2486 58.5362H12.4605L22.4289 49.0839V79.7186H0ZM49.049 79.7186L29.3388 50.6783H53.2402L73.0637 79.7186H49.049ZM22.4289 51.4754L12.4605 41.112H34.8893C39.5714 41.112 43.0453 40.0871 45.3108 38.0372C47.6519 35.9873 48.8224 33.1402 48.8224 29.4959C48.8224 25.7757 47.6519 22.8906 45.3108 20.8407C43.0453 18.7908 39.5714 17.7659 34.8893 17.7659H12.4605L22.4289 7.40244V51.4754Z" fill="url(#paint12_linear_11_7198)"/>
<defs>
<linearGradient id="paint0_linear_11_7198" x1="-2.60933e-06" y1="82" x2="106" y2="81" gradientUnits="userSpaceOnUse">
<stop stop-color="#980002"/>
<stop offset="1" stop-color="#320001"/>
</linearGradient>
<linearGradient id="paint1_linear_11_7198" x1="-2.60933e-06" y1="82" x2="106" y2="81" gradientUnits="userSpaceOnUse">
<stop stop-color="#980002"/>
<stop offset="1" stop-color="#320001"/>
</linearGradient>
<linearGradient id="paint2_linear_11_7198" x1="-2.60933e-06" y1="82" x2="106" y2="81" gradientUnits="userSpaceOnUse">
<stop stop-color="#980002"/>
<stop offset="1" stop-color="#320001"/>
</linearGradient>
<linearGradient id="paint3_linear_11_7198" x1="-2.60933e-06" y1="82" x2="106" y2="81" gradientUnits="userSpaceOnUse">
<stop stop-color="#980002"/>
<stop offset="1" stop-color="#320001"/>
</linearGradient>
<linearGradient id="paint4_linear_11_7198" x1="-2.60933e-06" y1="82" x2="106" y2="81" gradientUnits="userSpaceOnUse">
<stop stop-color="#980002"/>
<stop offset="1" stop-color="#320001"/>
</linearGradient>
<linearGradient id="paint5_linear_11_7198" x1="-2.60933e-06" y1="82" x2="106" y2="81" gradientUnits="userSpaceOnUse">
<stop stop-color="#980002"/>
<stop offset="1" stop-color="#320001"/>
</linearGradient>
<linearGradient id="paint6_linear_11_7198" x1="-2.60933e-06" y1="82" x2="106" y2="81" gradientUnits="userSpaceOnUse">
<stop stop-color="#980002"/>
<stop offset="1" stop-color="#320001"/>
</linearGradient>
<linearGradient id="paint7_linear_11_7198" x1="-2.60933e-06" y1="82" x2="106" y2="81" gradientUnits="userSpaceOnUse">
<stop stop-color="#980002"/>
<stop offset="1" stop-color="#320001"/>
</linearGradient>
<linearGradient id="paint8_linear_11_7198" x1="-2.60933e-06" y1="82" x2="106" y2="81" gradientUnits="userSpaceOnUse">
<stop stop-color="#980002"/>
<stop offset="1" stop-color="#320001"/>
</linearGradient>
<linearGradient id="paint9_linear_11_7198" x1="-2.60933e-06" y1="82" x2="106" y2="81" gradientUnits="userSpaceOnUse">
<stop stop-color="#980002"/>
<stop offset="1" stop-color="#320001"/>
</linearGradient>
<linearGradient id="paint10_linear_11_7198" x1="-2.60933e-06" y1="82" x2="106" y2="81" gradientUnits="userSpaceOnUse">
<stop stop-color="#980002"/>
<stop offset="1" stop-color="#320001"/>
</linearGradient>
<linearGradient id="paint11_linear_11_7198" x1="-2.60933e-06" y1="82" x2="106" y2="81" gradientUnits="userSpaceOnUse">
<stop stop-color="#980002"/>
<stop offset="1" stop-color="#320001"/>
</linearGradient>
<linearGradient id="paint12_linear_11_7198" x1="-2.60933e-06" y1="82" x2="106" y2="81" gradientUnits="userSpaceOnUse">
<stop stop-color="#980002"/>
<stop offset="1" stop-color="#320001"/>
</linearGradient>
</defs>
</svg>
