<svg width="80" height="80" viewBox="0 0 80 80" fill="none" xmlns="http://www.w3.org/2000/svg">
<g clip-path="url(#clip0_33_399)">
<path d="M0 38.3333C0 20.2633 0 11.2283 5.61333 5.61333C11.2267 -0.00166655 20.2633 5.86539e-10 38.3333 5.86539e-10H41.6667C59.7367 5.86539e-10 68.7733 0 74.3867 5.61333C80 11.2283 80 20.2633 80 38.3333V41.6667C80 59.7367 80 68.7733 74.3867 74.3867C68.7717 80 59.7367 80 41.6667 80H38.3333C20.2633 80 11.2283 80 5.61333 74.3867C0 68.7717 0 59.7367 0 41.6667V38.3333Z" fill="white"/>
<path fill-rule="evenodd" clip-rule="evenodd" d="M21.6666 25H15.8333C14.1666 25 13.8333 25.7833 13.8333 26.65C13.8333 28.195 15.8099 35.8583 23.0416 45.9933C27.8616 52.915 34.6533 56.6667 40.8333 56.6667C44.5416 56.6667 44.9999 55.8333 44.9999 54.3983V49.1667C44.9999 47.5 45.3499 47.1667 46.5249 47.1667C47.3916 47.1667 48.8749 47.6 52.3349 50.9367C56.2899 54.8917 56.9416 56.6667 59.1666 56.6667H64.9999C66.6666 56.6667 67.4999 55.8333 67.0182 54.1883C66.4932 52.55 64.6049 50.1717 62.0983 47.3533C60.7383 45.7467 58.6983 44.015 58.0816 43.15C57.2149 42.0383 57.4649 41.5433 58.0816 40.555C58.0816 40.555 65.1882 30.5433 65.9316 27.145C66.3016 25.9083 65.9316 25 64.1649 25H58.3333C56.8499 25 56.1666 25.7833 55.7966 26.65C55.7966 26.65 52.8299 33.88 48.6282 38.5767C47.2682 39.9367 46.6499 40.37 45.9082 40.37C45.5382 40.37 45.0016 39.9367 45.0016 38.7017V27.145C45.0016 25.6617 44.5699 25 43.3349 25H34.1683C33.2416 25 32.6849 25.6883 32.6849 26.3417C32.6849 27.7467 34.7849 28.0717 35.0016 32.025V40.6167C35.0016 42.5 34.6616 42.8417 33.9183 42.8417C31.9416 42.8417 27.1316 35.5783 24.2783 27.2683C23.7183 25.65 23.1566 25 21.6666 25Z" fill="black"/>
</g>
<defs>
<clipPath id="clip0_33_399">
<rect width="80" height="80" fill="white"/>
</clipPath>
</defs>
</svg>
